<svg width="24" height="24" viewBox="0 0 24 24" fill="none" xmlns="http://www.w3.org/2000/svg">
<path d="M4 7.99997L3.293 8.70697L2.586 7.99997L3.293 7.29297L4 7.99997ZM9 20C8.73478 20 8.48043 19.8946 8.29289 19.7071C8.10536 19.5195 8 19.2652 8 19C8 18.7348 8.10536 18.4804 8.29289 18.2929C8.48043 18.1053 8.73478 18 9 18V20ZM8.293 13.707L3.293 8.70697L4.707 7.29297L9.707 12.293L8.293 13.707ZM3.293 7.29297L8.293 2.29297L9.707 3.70697L4.707 8.70697L3.293 7.29297ZM4 6.99997H14.5V8.99997H4V6.99997ZM14.5 20H9V18H14.5V20ZM21 13.5C21 15.2239 20.3152 16.8772 19.0962 18.0962C17.8772 19.3151 16.2239 20 14.5 20V18C15.0909 18 15.6761 17.8836 16.2221 17.6574C16.768 17.4313 17.2641 17.0998 17.682 16.6819C18.0998 16.2641 18.4313 15.768 18.6575 15.222C18.8836 14.6761 19 14.0909 19 13.5H21ZM14.5 6.99997C16.2239 6.99997 17.8772 7.68479 19.0962 8.90377C20.3152 10.1228 21 11.7761 21 13.5H19C19 12.909 18.8836 12.3239 18.6575 11.7779C18.4313 11.2319 18.0998 10.7359 17.682 10.318C17.2641 9.90012 16.768 9.56866 16.2221 9.34251C15.6761 9.11636 15.0909 8.99997 14.5 8.99997V6.99997Z" fill="#FF2D9B"/>
</svg>
